<svg id="Layer_1" data-name="Layer 1" xmlns="http://www.w3.org/2000/svg" viewBox="0 0 276 35.35"><defs><style>.cls-1{font-size:30px;font-family:Chivo-Bold, Chivo;font-weight:700;}.cls-1,.cls-2{fill:#f93;}</style></defs><text class="cls-1" transform="translate(45.2 26.57) scale(0.6 1)">Inscrições até 28/03</text><path class="cls-2" d="M34.94,35.35H4.5A4.5,4.5,0,0,1,.61,28.61L15.83,2.25A4.44,4.44,0,0,1,19.72,0h0a4.44,4.44,0,0,1,3.89,2.25L38.83,28.61a4.5,4.5,0,0,1-3.89,6.74ZM17.85,3.41,2.63,29.77A2.17,2.17,0,0,0,4.5,33H34.94a2.17,2.17,0,0,0,1.87-3.25L21.59,3.41a2.16,2.16,0,0,0-3.74,0Z"/><path class="cls-2" d="M19.73,9.54h0a2.81,2.81,0,0,1,2.79,3.15L21.29,23a1.58,1.58,0,0,1-1.57,1.39h0A1.58,1.58,0,0,1,18.15,23L16.93,12.68A2.82,2.82,0,0,1,19.73,9.54Z"/><path class="cls-2" d="M18.13,29.43a2.24,2.24,0,0,1,1.6-3.83,2.25,2.25,0,1,1,0,4.49A2.17,2.17,0,0,1,18.13,29.43Z"/><path class="cls-2" d="M271.5,35.35H241.06a4.5,4.5,0,0,1-3.89-6.74L252.39,2.25A4.44,4.44,0,0,1,256.28,0h0a4.44,4.44,0,0,1,3.89,2.25l15.22,26.36a4.5,4.5,0,0,1-3.89,6.74ZM254.41,3.41,239.19,29.77A2.17,2.17,0,0,0,241.06,33H271.5a2.17,2.17,0,0,0,1.87-3.25L258.15,3.41a2.16,2.16,0,0,0-3.74,0Z"/><path class="cls-2" d="M256.29,9.54h0a2.81,2.81,0,0,1,2.79,3.15L257.85,23a1.58,1.58,0,0,1-1.57,1.39h0A1.58,1.58,0,0,1,254.71,23l-1.22-10.34A2.82,2.82,0,0,1,256.29,9.54Z"/><path class="cls-2" d="M254.69,29.43a2.24,2.24,0,0,1,1.6-3.83,2.25,2.25,0,1,1,0,4.49A2.17,2.17,0,0,1,254.69,29.43Z"/></svg>